<svg width="149" height="39" viewBox="0 0 149 39" fill="none" xmlns="http://www.w3.org/2000/svg">
<g clip-path="url(#clip0_562_462)">
<path fill-rule="evenodd" clip-rule="evenodd" d="M3.65173 2.38354H17.6391C18.3361 2.38354 18.9062 2.95349 18.9062 3.65022V34.5738C18.9062 35.2706 18.3361 35.8405 17.6391 35.8405H3.65173C2.95478 35.8405 2.38464 35.2706 2.38464 34.5738V3.65022C2.38464 2.95349 2.95478 2.38354 3.65173 2.38354Z" fill="#FEFEFE"/>
<path d="M17.9636 37.263C19.3221 37.0917 20.1466 36.332 20.4371 34.9839L20.6793 16.2183C15.2238 30.625 9.10087 37.1036 2.30997 35.6542C2.0691 37.3723 7.28697 37.9086 17.9635 37.263H17.9636Z" fill="#373CA6"/>
<path d="M2.75754 2.74849C3.00578 2.50561 3.30373 2.38411 3.65166 2.38362H17.6401C17.9886 2.38387 18.2854 2.50672 18.5304 2.7523C18.7804 3.00168 18.9058 3.30077 18.9066 3.64981V9.61942L21.2909 6.98641V3.64968C21.2918 2.64307 20.9342 1.78164 20.2179 1.06516C19.507 0.354807 18.6476 -0.000122442 17.6401 2.86153e-07H3.65166C2.64619 -0.000367898 1.78571 0.354561 1.06998 1.06516L1.06629 1.06884C0.355592 1.78422 0.000424965 2.64442 0.000916036 3.64968V34.5743C0.000670501 35.5814 0.355715 36.4405 1.06629 37.1513C1.78301 37.8672 2.64484 38.2248 3.65166 38.2239H17.6401C18.6458 38.224 19.5038 37.8677 20.2142 37.155C20.2173 37.1533 20.2198 37.1507 20.2217 37.1477C20.9345 36.4373 21.2909 35.5796 21.2909 34.5743V9.18741L18.9066 11.7123V34.5743C18.9066 34.922 18.7824 35.2186 18.5342 35.4643L18.5304 35.4681C18.2846 35.7163 17.9879 35.8404 17.6401 35.8405H3.65166C3.30251 35.8396 3.00332 35.7142 2.75386 35.4643C2.50832 35.2194 2.38531 34.9227 2.38506 34.5743V3.64968C2.38556 3.30187 2.50709 3.00389 2.75005 2.75586C2.75324 2.75402 2.7557 2.75156 2.75754 2.74837V2.74849Z" fill="#373CA6"/>
<path d="M9.11648 2.75254C9.36643 3.00192 9.49178 3.30101 9.49276 3.65005V8.22326C9.49264 8.57082 9.36852 8.86746 9.12016 9.11328L9.11648 9.11696C8.87057 9.36524 8.57384 9.48932 8.22617 9.48932H3.65147C3.30232 9.48846 3.00314 9.36316 2.75367 9.11328C2.50814 8.86832 2.38513 8.57156 2.38488 8.22326V3.65005C2.38537 3.30224 2.50691 3.00425 2.74987 2.75622C2.75306 2.75438 2.75552 2.75193 2.75736 2.74873C3.00559 2.50586 3.30355 2.38436 3.65147 2.38387H8.22617C8.57458 2.38411 8.87143 2.50696 9.11648 2.75254ZM8.22617 0.00048879H3.65147C2.64601 -2.12208e-06 1.78553 0.35505 1.06979 1.06552L1.06611 1.0692C0.355409 1.78458 0.00024186 2.64478 0.00073293 3.65005V8.22326C0.000487395 9.23036 0.355531 10.0895 1.06611 10.8002C1.78283 11.5162 2.64466 11.8737 3.65147 11.8728H8.22617C9.23188 11.8728 10.0899 11.5165 10.8002 10.804C10.8034 10.8021 10.8058 10.7996 10.8077 10.7965C11.5205 10.0861 11.877 9.22852 11.8769 8.22326V3.65005C11.8779 2.64343 11.5201 1.78201 10.804 1.06552C10.093 0.355173 9.2336 0.000243334 8.22617 0.00048879Z" fill="#373CA6"/>
<path d="M25.6387 4.82371V4.84396C23.9916 6.2881 21.7979 8.59612 19.0574 11.768C18.8008 12.065 17.7007 13.3608 15.7565 15.6553C14.4604 17.1671 13.4414 18.3346 12.6987 19.1578C13.4007 19.9271 14.4537 21.1351 15.8578 22.7819C17.8693 25.1304 19.1114 26.5679 19.5839 27.0942C21.0419 28.7814 22.2907 30.1649 23.3302 31.2446C24.6262 32.5943 25.7197 33.6133 26.6106 34.3017C28.2578 35.5705 30.0533 36.5423 31.9973 37.2173C34.0224 37.919 36.1081 38.27 38.2547 38.27C40.8467 38.27 43.3307 37.7706 45.7067 36.7718C47.9883 35.8 50.0132 34.4301 51.7818 32.6618C53.5369 30.9073 54.9004 28.8827 55.8724 26.5882C56.8715 24.226 57.3709 21.7494 57.3709 19.158C57.3709 16.5664 56.8714 14.0898 55.8724 11.7278C54.9004 9.44663 53.5369 7.42211 51.7818 5.65409C50.0133 3.89945 47.9883 2.53618 45.7067 1.5643C43.3307 0.565419 40.8465 0.0661621 38.2547 0.0661621C35.8786 0.0661621 33.5903 0.491292 31.3896 1.34167C29.2702 2.15155 27.3531 3.31219 25.6386 4.82408L25.6387 4.82371Z" fill="#E60C80"/>
<path d="M24.5642 13.7755C24.5912 14.5178 24.6047 15.0037 24.6047 15.2331C24.6047 16.5154 24.5776 18.5603 24.5237 21.3678C24.4966 23.9052 24.5372 25.9298 24.6451 27.4415L28.1283 27.5427L28.2497 11.9129C29.1273 11.8454 29.8495 11.8184 30.4166 11.8319C31.1727 11.8589 31.8072 11.9601 32.3201 12.1356C33.5755 12.5541 34.2168 13.4785 34.2438 14.9092C34.2573 15.5301 34.1157 16.124 33.8186 16.6909C33.5216 17.2713 33.1301 17.6898 32.6441 17.9461C32.0231 18.2835 31.321 18.3713 30.538 18.2094C30.295 18.1689 29.9777 18.0811 29.5863 17.9461C29.1543 17.7976 28.8639 17.7031 28.7155 17.6626C28.5264 18.2566 28.486 18.8505 28.5941 19.4444C28.6751 19.9573 28.8708 20.4905 29.1814 21.0438C29.4244 21.4623 29.762 21.9482 30.1939 22.5015C30.4368 22.8254 30.8081 23.2911 31.3076 23.8986C31.5641 24.2359 32.0569 24.8839 32.7859 25.8422C33.4474 26.6925 33.9199 27.2392 34.2035 27.4822L38.3546 27.4417C38.2601 27.1987 38.0036 26.8006 37.5852 26.2472C37.3421 25.9098 36.8967 25.3497 36.2488 24.5668C35.6142 23.7839 35.1553 23.2104 34.8717 22.8459C34.4262 22.2519 34.1292 21.8065 33.9806 21.5097L34.973 20.7809C35.5264 20.403 36.0192 19.9103 36.4513 19.3028C36.8698 18.7224 37.2006 18.0745 37.4435 17.3591C37.6866 16.6574 37.8283 15.9352 37.8689 15.1929C37.9228 14.4505 37.8689 13.7487 37.7069 13.0873C37.4639 12.0615 37.0927 11.2178 36.5931 10.5566C36.1342 9.9493 35.5604 9.47668 34.8718 9.13942C34.2508 8.84254 33.5082 8.63317 32.6443 8.51179C31.9692 8.41729 31.1188 8.37016 30.0928 8.37016C30.0523 8.37016 29.5258 8.36341 28.5133 8.34979C27.9327 8.33629 27.4806 8.34979 27.1565 8.39029C26.7111 8.44417 26.3329 8.55904 26.0226 8.73442C25.6715 8.93692 25.3745 9.23392 25.1314 9.6253C24.7804 10.1787 24.5915 11.0492 24.5645 12.237C24.551 12.6148 24.551 13.1278 24.5645 13.7757L24.5642 13.7755Z" fill="white"/>
<path d="M41.7453 15.4739C41.1466 16.4403 40.7532 17.5024 40.5651 18.6602C40.3714 19.8561 40.421 21.015 40.7139 22.137C41.0312 23.3467 41.6067 24.4083 42.4408 25.3217C43.3811 26.3515 44.5312 27.0509 45.8912 27.4199C47.0863 27.7452 48.3373 27.7937 49.6444 27.5653C50.8441 27.3553 51.8921 26.9547 52.7884 26.363C53.6846 25.7724 54.2262 25.1255 54.4131 24.4221L53.5203 23.8894C53.323 23.7947 52.9735 23.6183 52.4716 23.36C52.1995 23.2192 52.0051 23.135 51.8886 23.1074C51.7467 23.0739 51.6031 23.0884 51.4577 23.1507C51.3482 23.198 51.152 23.3179 50.8695 23.5106C50.2766 23.913 49.656 24.1863 49.0076 24.3305C48.2498 24.4989 47.5322 24.4682 46.855 24.2387C45.9507 23.932 45.2417 23.3491 44.7284 22.49C44.2462 21.6827 44.0143 20.7791 44.0328 19.7793C44.0513 18.7588 44.3288 17.8511 44.8652 17.0566C45.4535 16.186 46.2714 15.592 47.3188 15.2749C48.0063 15.0662 48.7274 15.0749 49.4818 15.3008C50.1934 15.5142 50.7329 15.8521 51.0997 16.3145C51.3742 16.6594 51.5191 16.9864 51.5341 17.2953C51.5467 17.5732 51.455 17.8252 51.2589 18.0513C51.0801 18.2577 50.8274 18.4278 50.5011 18.5616C50.1918 18.6895 49.8517 18.7714 49.48 18.8071C48.1467 18.9052 47.163 18.8935 46.5298 18.7725C46.2645 18.7219 46.0038 18.6434 45.7477 18.5374C45.6819 18.5109 45.4443 18.4007 45.0347 18.207C45.0012 18.6913 44.9904 19.0725 45.0018 19.3503C45.0145 19.694 45.0624 19.983 45.1455 20.2169C45.2345 20.4707 45.3738 20.6915 45.5644 20.8794C45.7581 21.0721 46.0218 21.2491 46.3551 21.4105C47.0588 21.7519 47.8767 21.9301 48.8087 21.9449C49.7328 21.96 50.6221 21.8124 51.477 21.5023C52.3814 21.1736 53.1169 20.7066 53.6832 20.1011C54.3085 19.4311 54.6661 18.6504 54.7561 17.7589C54.8783 16.5377 54.5905 15.4578 53.8927 14.519C53.2548 13.6598 52.3492 13.0089 51.176 12.5661C50.0397 12.1371 48.8355 11.9692 47.563 12.0626C46.2387 12.1595 45.0545 12.5279 44.0106 13.168C43.1131 13.7181 42.3582 14.4868 41.7456 15.4739H41.7453Z" fill="white"/>
<path d="M5.79331 4.18971C5.79331 3.81735 5.66416 3.48967 5.40597 3.20666C5.11538 2.91862 4.77384 2.77466 4.38148 2.77466C3.98653 2.77466 3.6488 2.91862 3.36815 3.20666C3.10248 3.48979 2.96965 3.81735 2.96965 4.18971C2.96965 4.59692 3.10248 4.94449 3.36815 5.23253C3.6488 5.48817 3.98653 5.61618 4.38148 5.61618C4.77384 5.61618 5.11526 5.4883 5.40597 5.23253C5.66416 4.94449 5.79331 4.59692 5.79331 4.18971ZM5.81565 7.59357C5.81565 7.5662 5.81565 7.54141 5.81565 7.51907C5.8008 7.1666 5.66047 6.87107 5.39468 6.63286C5.09427 6.32493 4.7526 6.17103 4.37018 6.17103C3.96039 6.17103 3.6202 6.32493 3.34949 6.63286C3.10604 6.87107 2.97321 7.1666 2.95087 7.51907V7.59357C2.95087 8.00569 3.0837 8.34454 3.34949 8.61025C3.62007 8.88074 3.96039 9.01623 4.37018 9.01623C4.7526 9.01623 5.09414 8.88086 5.39468 8.61025C5.67533 8.34454 5.81565 8.00569 5.81565 7.59357ZM6.59793 4.86386C6.30733 5.14441 6.1621 5.47713 6.1621 5.86188C6.1621 6.24418 6.30733 6.57076 6.59793 6.84137C6.86372 7.13935 7.18905 7.28835 7.57393 7.28835C7.96138 7.28835 8.29789 7.13935 8.58345 6.84137C8.86164 6.57088 9.00061 6.24418 9.00061 5.86188C9.00061 5.47713 8.86164 5.14453 8.58345 4.86386C8.29789 4.58575 7.96138 4.44683 7.57393 4.44683C7.18905 4.44683 6.86372 4.58575 6.59793 4.86386Z" fill="#373CA6"/>
<path d="M12.5621 22.8885L10.4797 21.1455L5.11157 16.7288L10.5766 25.7336L12.5621 22.8885Z" fill="#E60C80"/>
<path d="M10.4797 21.1453L12.5621 22.8883L24.3562 5.93628C21.2617 8.99 16.6362 14.0598 10.4797 21.1453Z" fill="#373CA6"/>
<path d="M79.2555 12.446C78.7117 12.1703 78.0523 12.0164 77.2775 11.9843C76.53 11.9545 75.8121 12.0401 75.1243 12.2413C74.5109 12.4224 73.9658 12.7118 73.4889 13.109C73.022 13.4962 72.6708 13.9456 72.4347 14.4571C72.3378 14.4149 72.2136 14.3243 72.0621 14.1853C72.0249 14.1504 71.8696 13.9991 71.5965 13.7308C71.1147 13.2566 70.6714 12.8968 70.2666 12.651C68.856 11.8043 67.1672 11.7622 65.2002 12.5243C64.7979 12.6808 64.4267 12.8768 64.0863 13.1127C63.8282 13.2939 63.5686 13.5136 63.3078 13.7718L63.2779 12.4943L59.6085 12.5503L59.6457 27.4652L63.3524 27.3907L63.3748 16.6877C63.5313 16.8614 63.6542 16.9769 63.7436 17.0341C63.8703 17.1135 64.0987 17.2053 64.429 17.3096C64.4712 16.8603 64.5756 16.5139 64.7418 16.2706C64.9927 15.9057 65.4148 15.6747 66.0084 15.5779C66.592 15.4835 67.0851 15.5147 67.4873 15.671C67.8822 15.8224 68.2124 16.103 68.4782 16.5127C68.8731 17.1184 69.1066 18.8439 69.1786 21.689C69.1985 22.5952 69.2047 23.7014 69.1972 25.0072C69.1872 26.5638 69.1823 27.377 69.1823 27.4464L72.7438 27.4129L72.7513 16.8551C72.868 17.0116 72.9995 17.1208 73.1461 17.1828C73.2728 17.235 73.4255 17.2548 73.6044 17.2424C73.6641 16.8975 73.7658 16.6192 73.9098 16.4084C74.0564 16.1948 74.2961 15.9776 74.6289 15.7566C74.9417 15.5505 75.2794 15.4165 75.6421 15.3544C76.0494 15.2874 76.4257 15.3259 76.7709 15.4698C77.1682 15.6362 77.4937 15.9328 77.7469 16.3598C78.0375 16.8464 78.2239 17.4857 78.3057 18.2778C78.42 19.3875 78.4721 20.8983 78.4622 22.8099C78.4597 22.9961 78.451 23.7868 78.4362 25.1821C78.4262 26.1229 78.4249 26.8777 78.4324 27.4463L82.1539 27.4351L82.1763 22.8545C82.1763 22.3779 82.1838 21.7871 82.1986 21.0819C82.221 20.1533 82.2334 19.6035 82.2358 19.432C82.2531 18.2056 82.2072 17.2361 82.098 16.5235C81.9539 15.5875 81.6771 14.8056 81.2672 14.1774C80.8053 13.4699 80.1348 12.8926 79.2555 12.4457V12.446Z" fill="#272D30"/>
<path d="M114.808 13.8937C113.94 13.2324 112.914 12.7561 111.729 12.4647C110.372 12.338 109.282 12.471 108.459 12.8639C107.795 13.1819 107.326 13.6552 107.05 14.2842C106.842 14.7577 106.758 15.2674 106.798 15.8135C106.812 16.0139 106.841 16.1872 106.886 16.3335C106.927 16.466 106.965 16.5339 107 16.5374C107.263 16.429 107.506 16.3173 107.728 16.2022C107.918 16.1215 108.253 16.0368 108.734 15.948C109.559 15.7948 110.314 15.8024 110.998 15.9705C111.625 16.1238 112.171 16.4054 112.637 16.8155C113.069 17.1945 113.408 17.6622 113.653 18.2185C113.888 18.7484 114.02 19.3141 114.047 19.9153C114.076 20.5132 114 21.0891 113.821 21.6434C113.634 22.217 113.352 22.7135 112.974 23.1328C112.569 23.5832 112.081 23.9138 111.508 24.1247C110.886 24.3527 110.191 24.4276 109.425 24.3493C108.062 24.2098 107.141 23.3661 106.661 21.8179C106.472 21.2074 106.343 20.4621 106.274 19.5819C106.227 18.9714 106.204 18.1806 106.207 17.2096C106.208 16.6405 106.218 15.8284 106.236 14.773C106.259 13.5024 106.273 12.6356 106.278 12.1726C106.3 10.0715 106.26 8.39586 106.16 7.146C105.461 7.24148 104.908 7.35623 104.503 7.48988C104.03 7.64538 103.657 7.85561 103.382 8.12058C103.093 8.4015 102.882 8.77361 102.75 9.23667C102.616 9.70095 102.55 10.2994 102.551 11.0322C102.553 12.6771 102.534 15.4694 102.492 19.4091C102.469 22.9595 102.501 25.6377 102.587 27.444L106.082 27.3973L106.435 26.2949C106.879 26.6877 107.305 26.9767 107.714 27.1622C108.078 27.3269 108.628 27.4934 109.365 27.6616C110.416 27.9011 111.418 27.9069 112.372 27.6789C113.256 27.4669 114.063 27.0626 114.794 26.4659C115.483 25.9026 116.063 25.2022 116.534 24.3648C116.993 23.5504 117.315 22.6674 117.501 21.7159C117.688 20.7563 117.721 19.8048 117.599 18.8614C117.471 17.8754 117.182 16.9683 116.731 16.1399C116.251 15.2541 115.61 14.5054 114.808 13.8936L114.808 13.8937Z" fill="#272D30"/>
<path d="M138.673 18.186C138.64 18.6732 138.628 19.0569 138.638 19.3368C138.652 19.6835 138.701 19.975 138.784 20.2111C138.873 20.4657 139.014 20.688 139.205 20.8781C139.4 21.0716 139.666 21.2496 140.002 21.412C140.711 21.7553 141.535 21.9345 142.474 21.9494C143.404 21.9643 144.299 21.8157 145.158 21.5037C146.07 21.1731 146.81 20.7024 147.379 20.0919C148.01 19.418 148.37 18.6325 148.46 17.7351C148.583 16.5047 148.294 15.4174 147.592 14.4726C146.949 13.6075 146.037 12.9521 144.856 12.5063C143.712 12.0743 142.499 11.9056 141.219 12C139.885 12.0978 138.693 12.4688 137.643 13.1127C136.739 13.6668 135.98 14.4409 135.363 15.435C134.759 16.4073 134.363 17.4764 134.174 18.6422C133.978 19.8459 134.027 21.0128 134.322 22.143C134.642 23.3617 135.221 24.4307 136.061 25.35C137.009 26.3868 138.167 27.0911 139.535 27.4632C140.738 27.7903 141.998 27.8388 143.314 27.6083C144.522 27.3975 145.577 26.9944 146.481 26.3988C147.383 25.8033 147.928 25.1513 148.116 24.4428L147.217 23.9071C147.02 23.8126 146.668 23.6352 146.162 23.3749C145.887 23.2332 145.691 23.1485 145.575 23.1209C145.431 23.0863 145.286 23.1006 145.141 23.1641C145.03 23.2112 144.833 23.3316 144.548 23.5251C143.951 23.9306 143.327 24.2059 142.674 24.3511C141.91 24.5216 141.187 24.4911 140.505 24.2594C139.595 23.9506 138.881 23.3639 138.363 22.4988C137.878 21.6867 137.646 20.7766 137.665 19.7687C137.684 18.7411 137.962 17.8275 138.502 17.028C139.095 16.1503 139.919 15.5519 140.974 15.2327C141.666 15.0241 142.392 15.0335 143.15 15.2603C143.866 15.4757 144.409 15.8156 144.778 16.2798C145.054 16.6277 145.2 16.9571 145.215 17.2681C145.229 17.548 145.137 17.8015 144.939 18.0284C144.759 18.2358 144.504 18.4074 144.175 18.5434C143.865 18.6713 143.522 18.753 143.148 18.7887C141.807 18.8877 140.817 18.8762 140.178 18.7542C139.911 18.7035 139.649 18.6251 139.392 18.5192C139.326 18.4916 139.087 18.3804 138.673 18.1857V18.186Z" fill="#272D30"/>
<path d="M87.3629 13.7574C87.3007 13.7966 87.1013 13.9555 86.7649 14.2344C86.4445 14.4993 86.278 14.6336 86.2653 14.637C87.2932 14.3825 88.1973 14.307 88.9773 14.4106C89.9511 14.5419 90.8212 14.9538 91.5874 15.6461C92.3952 15.5803 93.0952 15.6311 93.6875 15.7982C94.1012 15.9145 94.467 16.0912 94.7851 16.3286C95.2483 16.6742 95.6233 17.1343 95.9104 17.7093C96.1857 18.2622 96.3523 18.8629 96.4099 19.5114C96.4676 20.1669 96.4071 20.7953 96.2285 21.3966C96.0394 22.0348 95.7346 22.5791 95.3141 23.0295C94.513 23.8865 93.5891 24.3427 92.5416 24.3979C92.0736 24.4222 91.6104 24.361 91.1518 24.2148C90.7082 24.0743 90.2956 23.863 89.9142 23.5807C89.5408 23.3055 89.2183 22.9771 88.9464 22.5958C88.6731 22.2156 88.4704 21.8102 88.3379 21.3794C88.1997 20.9336 88.1459 20.4911 88.1772 20.0524C88.2106 19.5858 88.3378 19.1475 88.5592 18.7374C88.883 18.1349 89.3047 17.7571 89.8244 17.6038C90.2555 17.4772 90.8758 17.4847 91.6859 17.6263C91.6318 17.0573 91.4014 16.574 90.9945 16.1766C90.6303 15.8195 90.1561 15.5592 89.5719 15.3956C89.0258 15.2423 88.4611 15.1929 87.8781 15.247C87.2937 15.3011 86.7932 15.4508 86.376 15.6963C85.695 16.0971 85.188 16.7139 84.855 17.5469C84.5404 18.3314 84.412 19.2219 84.4695 20.2183C84.526 21.209 84.7582 22.1731 85.1661 23.1109C85.5958 24.098 86.171 24.9367 86.8911 25.6267C87.6838 26.3859 88.5827 26.9531 89.5876 27.3287C90.5429 27.6858 91.5357 27.8488 92.5658 27.8176C93.5752 27.7889 94.5443 27.5763 95.4731 27.1801C96.4179 26.778 97.2469 26.2176 97.9604 25.4988C98.6679 24.7858 99.2158 23.9483 99.6042 22.9863C99.9821 22.0464 100.179 21.0638 100.194 20.0385C100.207 18.9973 100.032 17.9984 99.6665 17.0422C99.2838 16.0377 98.717 15.152 97.9656 14.3847C96.0757 12.4564 93.9211 11.6828 91.5012 12.0642C90.6669 12.1944 89.8182 12.4622 88.9551 12.8677C88.4813 13.0899 87.9507 13.3867 87.3631 13.7576L87.3629 13.7574Z" fill="#272D30"/>
<path d="M131.572 7.08572C130.679 7.03503 129.898 7.23029 129.229 7.6715C128.544 8.12424 128.145 8.72843 128.031 9.48406L128.001 27.4667L131.645 27.3768L131.572 7.08572Z" fill="#272D30"/>
<path d="M122.519 12.724C121.942 12.9764 121.516 13.3449 121.239 13.8299C120.958 14.324 120.802 15.0008 120.769 15.8602C120.759 16.1436 120.76 16.5179 120.773 16.9833C120.789 17.5685 120.797 17.9376 120.797 18.0909C120.797 19.1207 120.794 20.6697 120.788 22.7373C120.785 24.5932 120.79 26.161 120.802 27.4407L124.543 27.3854L124.522 12.5062C123.807 12.3795 123.14 12.4521 122.519 12.7239V12.724Z" fill="#272D30"/>
<path d="M122.074 6.33422C121.373 6.53341 120.864 6.94295 120.55 7.56285C120.296 8.06272 120.176 8.68422 120.189 9.42721C120.198 9.98256 120.277 10.5561 120.426 11.1483C120.48 11.3614 120.535 11.5484 120.593 11.71C120.644 11.8505 120.679 11.9277 120.7 11.9415C120.965 11.8218 121.452 11.642 122.161 11.4024C122.807 11.1847 123.29 10.9953 123.609 10.8339C124.098 10.5863 124.462 10.3002 124.702 9.97519C124.988 9.58934 125.121 9.12101 125.101 8.57045C125.088 8.2111 124.997 7.86893 124.828 7.54407C124.662 7.22731 124.439 6.9594 124.157 6.74057C123.869 6.51586 123.551 6.36613 123.201 6.29127C122.829 6.21297 122.454 6.22745 122.074 6.33459L122.074 6.33422Z" fill="#272D30"/>
</g>
<defs>
<clipPath id="clip0_562_462">
<rect width="148.488" height="38.27" fill="white"/>
</clipPath>
</defs>
</svg>
